<?xml version="1.0" standalone="no"?>
<!DOCTYPE svg PUBLIC "-//W3C//DTD SVG 20010904//EN"
 "http://www.w3.org/TR/2001/REC-SVG-20010904/DTD/svg10.dtd">
<svg version="1.0" xmlns="http://www.w3.org/2000/svg"
 width="1000.000000pt" height="294.000000pt" viewBox="0 0 1000.000000 294.000000"
 preserveAspectRatio="xMidYMid meet">

<g transform="translate(0.000000,294.000000) scale(0.100000,-0.100000)"
fill="#000000" stroke="none">
<path d="M0 1470 l0 -1470 5000 0 5000 0 0 1470 0 1470 -5000 0 -5000 0 0
-1470z m8000 890 c24 -12 38 -25 34 -32 -4 -7 -3 -8 4 -4 6 4 25 -12 44 -38
50 -66 90 -90 162 -94 78 -4 116 16 172 89 58 75 111 104 194 104 51 0 73 -5
103 -23 20 -13 35 -28 32 -33 -4 -5 0 -7 7 -4 7 2 28 -18 48 -47 60 -90 125
-117 203 -85 18 8 38 21 46 30 7 9 17 14 22 11 5 -3 6 1 3 9 -7 20 71 85 113
93 168 32 279 -171 158 -291 -79 -80 -201 -65 -271 33 -48 67 -129 91 -195 57
-16 -9 -35 -13 -41 -9 -6 4 -8 3 -5 -3 12 -19 -79 -129 -125 -152 -90 -43
-203 -20 -266 55 -71 83 -94 102 -137 114 -86 24 -160 -8 -225 -95 -131 -177
-401 -95 -400 121 0 35 8 75 19 99 21 47 77 99 98 91 8 -3 11 -1 8 4 -9 15 55
30 107 25 26 -2 65 -13 88 -25z m-1900 -433 c0 -96 3 -176 6 -180 3 -3 24 1
46 9 54 19 163 18 221 -2 205 -70 253 -418 81 -592 -13 -13 -28 -21 -34 -17
-6 4 -9 1 -8 -6 4 -18 -66 -55 -133 -69 -71 -15 -190 -8 -242 14 l-37 15 0
500 0 501 50 0 50 0 0 -173z m1420 -77 l0 -90 100 0 c62 0 100 -4 100 -10 0
-6 -7 -26 -14 -45 l-15 -35 -85 0 -86 0 0 -244 c0 -277 0 -276 73 -276 23 0
59 9 79 20 l38 20 15 -30 c8 -16 15 -32 15 -35 0 -3 -29 -20 -65 -37 -56 -26
-75 -30 -123 -26 -57 4 -102 26 -119 58 -4 8 -10 136 -13 285 l-5 269 -51 -3
c-47 -2 -52 0 -55 21 -3 13 -3 33 -1 45 3 20 8 22 55 20 l52 -2 3 77 3 77 42
15 c23 8 45 15 50 15 4 1 7 -39 7 -89z m-2256 -86 c9 -3 16 -13 16 -21 0 -8
-5 -11 -12 -7 -6 4 -8 3 -5 -3 4 -6 2 -24 -3 -39 -10 -27 -13 -29 -69 -29 -52
0 -65 -5 -115 -39 l-56 -38 0 -257 0 -256 -45 -2 -45 -2 0 345 0 344 37 -2
c33 -3 38 -7 46 -38 5 -19 10 -37 12 -39 2 -1 16 9 32 23 15 14 34 24 41 21 7
-3 10 0 7 5 -15 24 114 51 159 34z m416 -4 c47 -13 129 -65 137 -87 4 -10 15
-27 25 -38 29 -30 58 -139 58 -214 0 -158 -61 -274 -174 -334 -56 -29 -202
-31 -263 -3 -25 11 -40 23 -36 30 3 6 3 8 -2 4 -27 -25 -105 85 -130 182 -29
111 -7 262 50 347 12 18 25 30 28 26 4 -3 7 0 7 8 0 17 56 56 107 75 45 16
144 18 193 4z m1417 -23 c67 -35 117 -101 145 -190 17 -58 20 -86 15 -161 -12
-196 -113 -313 -281 -324 -86 -5 -139 8 -202 51 -118 80 -166 294 -102 464 27
73 96 147 161 173 75 29 192 24 264 -13z m1440 16 l53 -17 0 -47 0 -48 -42 19
c-105 46 -207 35 -282 -32 -58 -50 -80 -114 -80 -223 1 -97 23 -154 82 -207
70 -63 167 -73 269 -28 49 22 68 15 59 -23 -2 -9 0 -15 5 -11 5 3 9 0 9 -6 0
-22 -111 -63 -185 -68 -79 -5 -182 18 -192 43 -3 8 -9 13 -13 10 -4 -3 -26 15
-47 38 -121 131 -118 383 6 520 33 37 89 72 141 88 45 13 162 9 217 -8z m508
3 c38 -11 40 -14 43 -54 2 -23 2 -42 0 -42 -2 0 -25 7 -52 15 -27 8 -77 15
-112 15 -53 0 -67 -4 -93 -26 -52 -44 -37 -125 31 -160 16 -9 26 -20 22 -26
-4 -6 -3 -8 3 -5 13 8 95 -27 149 -64 23 -15 49 -44 58 -64 18 -37 23 -116 11
-157 -9 -30 -35 -59 -47 -52 -4 3 -7 0 -6 -8 2 -7 -19 -24 -46 -37 -73 -36
-184 -41 -276 -11 -38 12 -70 24 -70 26 0 10 35 74 40 74 4 0 22 -8 41 -17 19
-10 64 -19 102 -21 111 -7 166 28 167 104 0 34 -6 49 -32 75 -18 19 -31 38
-30 42 1 5 -2 6 -7 3 -12 -8 -156 59 -168 76 -4 7 -8 16 -8 21 0 4 -3 6 -6 5
-14 -6 -37 26 -49 67 -26 93 11 178 94 216 48 21 179 24 241 5z m-1097 -343
l-3 -338 -47 -3 -47 -4 -3 341 -3 341 53 0 52 0 -2 -337z"/>
<path d="M8545 2314 c-92 -48 -121 -142 -70 -229 13 -23 21 -46 17 -50 -4 -5
-2 -5 5 -2 13 8 45 -2 39 -12 -3 -4 23 -8 58 -9 68 -3 109 16 150 71 31 42 29
130 -3 176 -44 61 -135 87 -196 55z m116 -65 c46 -24 54 -105 14 -149 -15 -17
-21 -19 -76 -22 -63 -3 -103 79 -69 141 19 37 89 53 131 30z"/>
<path d="M9165 2225 c-50 -49 -17 -145 50 -145 83 0 126 90 70 145 -16 17 -35
25 -60 25 -25 0 -44 -8 -60 -25z"/>
<path d="M6145 1665 c-22 -8 -41 -15 -42 -15 -2 0 -3 -110 -3 -245 l0 -244 38
-10 c80 -23 163 -3 231 55 63 55 85 110 85 224 1 115 -21 171 -86 216 -34 24
-53 29 -112 31 -45 2 -86 -2 -111 -12z"/>
<path d="M5525 1683 c-10 -3 -29 -12 -40 -19 -12 -8 -25 -11 -30 -7 -4 5 -5 3
-2 -3 4 -7 1 -17 -7 -23 -24 -20 -56 -108 -62 -170 -22 -210 115 -366 271
-307 115 44 171 196 134 363 -27 126 -140 197 -264 166z"/>
<path d="M6861 1668 c-110 -54 -154 -249 -90 -398 60 -140 219 -172 319 -64
66 72 90 214 55 332 -39 129 -167 188 -284 130z"/>
</g>
</svg>
